<svg xmlns="http://www.w3.org/2000/svg" viewBox="0 0 800 450"><defs><marker id="arr" markerWidth="8" markerHeight="8" refX="7" refY="4" orient="auto"><path d="M0 0 L8 4 L0 8 z" fill="#d59b4a"/></marker></defs><rect width="800" height="450" fill="#16243f"/><g stroke="#d59b4a" stroke-width="4" marker-end="url(#arr)" opacity=".96"><path d="M134 110 H186"/><path d="M279 92 H315"/><path d="M413 128 H479"/><path d="M595 98 H635"/><path d="M712 142 H746"/><path d="M190 232 H230"/><path d="M344 215 H404"/><path d="M502 245 H545"/><path d="M676 235 H734"/><path d="M127 342 H175"/><path d="M301 330 H337"/><path d="M455 350 H517"/><path d="M620 332 H662"/><path d="M733 345 H764"/></g><g><circle cx="110" cy="110" r="12" fill="#6fa3d2"/><circle cx="106" cy="106" r="3" fill="white" opacity=".35"/><circle cx="250" cy="92" r="17" fill="#dce9f4"/><circle cx="246" cy="88" r="4" fill="white" opacity=".35"/><circle cx="390" cy="128" r="11" fill="#dce9f4"/><circle cx="386" cy="124" r="2" fill="white" opacity=".35"/><circle cx="565" cy="98" r="18" fill="#6fa3d2"/><circle cx="561" cy="94" r="4" fill="white" opacity=".35"/><circle cx="690" cy="142" r="10" fill="#dce9f4"/><circle cx="686" cy="138" r="2" fill="white" opacity=".35"/><circle cx="160" cy="232" r="18" fill="#dce9f4"/><circle cx="156" cy="228" r="4" fill="white" opacity=".35"/><circle cx="320" cy="215" r="12" fill="#6fa3d2"/><circle cx="316" cy="211" r="3" fill="white" opacity=".35"/><circle cx="470" cy="245" r="20" fill="#dce9f4"/><circle cx="466" cy="241" r="5" fill="white" opacity=".35"/><circle cx="650" cy="235" r="14" fill="#dce9f4"/><circle cx="646" cy="231" r="3" fill="white" opacity=".35"/><circle cx="105" cy="342" r="10" fill="#6fa3d2"/><circle cx="101" cy="338" r="2" fill="white" opacity=".35"/><circle cx="270" cy="330" r="19" fill="#dce9f4"/><circle cx="266" cy="326" r="4" fill="white" opacity=".35"/><circle cx="430" cy="350" r="13" fill="#dce9f4"/><circle cx="426" cy="346" r="3" fill="white" opacity=".35"/><circle cx="590" cy="332" r="18" fill="#6fa3d2"/><circle cx="586" cy="328" r="4" fill="white" opacity=".35"/><circle cx="710" cy="345" r="11" fill="#dce9f4"/><circle cx="706" cy="341" r="2" fill="white" opacity=".35"/></g><path d="M55 401 H745" stroke="#dce9f4" opacity=".18"/><text x="58" y="426" fill="#dce9f4" opacity=".78" font-family="Arial,sans-serif" font-size="19" letter-spacing="2">DRIVE →     RELAXATION →     STEADY STATE</text></svg>